/* XPM */ 
static char * g_FolderIconXpm[] = {
"16 16 8 1",
" 	c None",
".	c #909000",
"+	c #000000",
"@	c #EFE8EF",
"#	c #FFF8CF",
"$	c #FFF890",
"%	c #CFC860",
"&	c #FFC890",
"                ",
"  .....+        ",
" .@##$$.+       ",
".%%%%%%%......  ",
".###########$%+ ",
".#$$$$$$$$$$&%+ ",
".#$$$$$$$&$&$%+ ",
".#$$$$$$$$&$&%+ ",
".#$$$$$&$&$&$%+ ",
".#$$$$$$&$&$&%+ ",
".#$$$&$&$&$&&%+ ",
".#&$&$&$&$&&&%+ ",
".%%%%%%%%%%%%%+ ",
" ++++++++++++++ ",
"                ",
"                "};

/*
"16 16 166 2",
"   c black",
".  c #020200",
"X  c #030300",
"o  c #040300",
"O  c #070600",
"+  c #070700",
"@  c #090800",
"#  c #080806",
"$  c #0C0B00",
"%  c #0C0B07",
"&  c #0F0F09",
"*  c #121101",
"=  c #131201",
"-  c #141201",
";  c #161400",
":  c #1C1901",
">  c #1F1D00",
",  c #282600",
"<  c #2B2901",
"1  c #2C2908",
"2  c #242317",
"3  c #2C2B1C",
"4  c #322D00",
"5  c #302E0D",
"6  c #3B3A32",
"7  c #3E3D36",
"8  c #433D03",
"9  c #48420F",
"0  c #444017",
"q  c #47431A",
"w  c #595103",
"e  c #565124",
"r  c #575432",
"t  c #54523C",
"y  c #6A6205",
"u  c #6A663B",
"i  c #706A37",
"p  c #7D7622",
"a  c #74704B",
"s  c #737259",
"d  c #7A7961",
"f  c #887D05",
"g  c #807F60",
"h  c #827F62",
"j  c #9F9107",
"k  c #A79802",
"l  c #A89604",
"z  c #B39F05",
"x  c #B2A400",
"c  c #BEAC07",
"v  c #B1A015",
"b  c #BFAE10",
"n  c #BEAF1B",
"m  c #B7AD3D",
"M  c #888249",
"N  c #8B8856",
"B  c #CEBB07",
"V  c #CCB611",
"C  c #D1BF15",
"Z  c #C4B62F",
"A  c #C3B749",
"S  c #CABF43",
"D  c #CBBF50",
"F  c #DDC60A",
"G  c #D8C718",
"H  c #E2CD0B",
"J  c #E2CE0B",
"K  c #E0CC11",
"L  c #E0CD11",
"P  c #E1CE11",
"I  c #E1CF13",
"U  c #E1CF15",
"Y  c #EFD80F",
"T  c #E1D014",
"R  c #E4D214",
"E  c #EAD616",
"W  c #EAD716",
"Q  c #EFDB18",
"!  c #F1DB0F",
"~  c #F2DD11",
"^  c #F0DC15",
"/  c #EFDE2C",
"(  c #F1DF26",
")  c #F1DF3C",
"_  c #F1DF3D",
"`  c #F1E026",
"'  c #F0E02D",
"]  c #F1E035",
"[  c #D0C85F",
"{  c #DDD25A",
"}  c #CFC66B",
"|  c #D1C973",
" . c #D4CD76",
".. c #D5CE77",
"X. c #DDD374",
"o. c #F0DF40",
"O. c #E4DA77",
"+. c #E6DE71",
"@. c #E7E077",
"#. c #F1E566",
"$. c #F1E66A",
"%. c #F2E86F",
"&. c #F6EA68",
"*. c #F0E67B",
"=. c #F3E977",
"-. c #F2E87C",
";. c #989782",
":. c #A4A393",
">. c #B9B38A",
",. c #BFBC9F",
"<. c #DBD588",
"1. c #DCD78A",
"2. c #D6D194",
"3. c #DAD592",
"4. c #DCD794",
"5. c #D6D3A3",
"6. c #D5D1AA",
"7. c #DEDAA8",
"8. c #DDD9B7",
"9. c #E3D982",
"0. c #E2DE88",
"q. c #E5DD9B",
"w. c #E5DFA2",
"e. c #E1DEBF",
"r. c #EBE498",
"t. c #F3E789",
"y. c #F3E98D",
"u. c #F2EA8D",
"i. c #F2EA8E",
"p. c #F4EE94",
"a. c #F4EE95",
"s. c #F3EB98",
"d. c #F6EE9D",
"f. c #ECE7BB",
"g. c #EFEABD",
"h. c #EEEBBE",
"j. c #F6EFB1",
"k. c #F7F1B9",
"l. c #F7F1BB",
"z. c #F7F2BC",
"x. c #E9E7C6",
"c. c #EDE9C3",
"v. c #ECEBD3",
"b. c #EEEDD2",
"n. c #EDECDC",
"m. c #F6F2C3",
"M. c #F8F3C1",
"N. c #F8F5CD",
"B. c #F3F0DD",
"V. c #F3F1DD",
"C. c #F4F0DC",
"Z. c #F4F1DF",
"A. c #F5F3DC",
"S. c #F6F4DD",
"D. c #F7F4DE",
"F. c #F9F6D3",
"G. c #F6F3E3",
"H. c #F6F3E4",
"J. c #F6F5E0",
"K. c #F7F5E0",
"L. c #F8F6E3",
"P. c #F3F2F2",
"I. c #F5F4F4",
"U. c #F6F5F5",
"Y. c gray100",
"T. c None",
"T.T.T.  +   T.    @ T.T.T.T.    ",
"T.  T.T.      T.T.    2 t #     ",
"  T.+ 3 s t   & 6 s ,.B.A.% X 5 ",
"T.r 8.G.U.:.g c.U.G.h.2.| M 6.>.",
"  N U.A.n.J.N.7.1...X.w.B.P.U.;.",
"i D.b.e.4...} O.q.m.A.D.G.v.G.h ",
"q F.5.D @.t.j.z.z.l.g.z.z.f.c.a ",
"- 9.<.S y.y.y.y.a.a.s.s.d.r.3.u ",
"  A 0.Z $.#.#.&.%.=.-.-.-.-.} e ",
"  0 @.n / Q ( ( ` ) o.] ] o.v 4 ",
"T.1 { b Y Q Q Q ^ ^ ^ W R R x , ",
"T.$ m V Y Q Q Q W U F R F J l ; ",
"    p G Y W F F J F B j w > X   ",
"    9 C F J R V j 9 =   X       ",
"    : z l y < +                 ",
"T.    *                     T.T."
};
*/