/* XPM */ 
static char * g_InstallIconXpm[] = {
"16 16 61 1",
" 	c None",
"!	c black",
"#	c #73C767",
"$	c #72C566",
"%	c #6FC164",
"&	c #6CBD61",
"'	c #71C465",
"(	c #AAD8A1",
")	c #A8D79F",
"*	c #67B75C",
"+	c #6EBF62",
",	c #A6D69D",
"-	c #A4D49B",
".	c #62B158",
"0	c #69BA5E",
"1	c #A2D499",
"2	c #A0D397",
"3	c #5CA952",
"4	c #64B35A",
"5	c #9ED295",
"6	c #9BD093",
"7	c #56A14D",
"8	c #5EAC55",
"9	c #99CF92",
":	c #97CE8F",
";	c #4F9947",
"<	c #58A54F",
"=	c #94CC8D",
">	c #92CB8A",
"?	c #499141",
"@	c #529D49",
"A	c #90CA89",
"B	c #8DC986",
"C	c #42893B",
"D	c #4B9444",
"E	c #8BC784",
"F	c #88C581",
"G	c #3C8135",
"H	c #54994D",
"I	c #86C480",
"J	c #84C27D",
"K	c #357930",
"L	c #448B3C",
"M	c #6BAC64",
"N	c #81C17C",
"O	c #7FC079",
"P	c #4F914A",
"Q	c #2B6C26",
"R	c #276723",
"S	c #3D8237",
"T	c #569850",
"U	c #7DBF78",
"V	c #7BBE75",
"W	c #4A8C45",
"X	c #266522",
"Y	c #32742C",
"Z	c #4C8E47",
"[	c #498B44",
"]	c #256421",
"^	c #286824",
"_	c #246320",
"                ",
"      #$%&      ",
"      '()*      ",
"      +,-.      ",
"      0123      ",
"      4567      ",
"      89:;      ",
"      <=>?      ",
"      @ABC      ",
"      DEFG      ",
"      HIJK      ",
"    ?LMNOPQR    ",
"     STUVWX     ",
"      YZ[]      ",
"       ^_       ",
"                "};