/* XPM */ 
static char * g_LauncherIconXpm[] = {
"16 16 87 1",
" 	c None",
"!	c #0012FA",
"#	c #4653FF",
"$	c #7982FF",
"%	c #848DFF",
"&	c #8A92FF",
"'	c #959CFF",
"(	c #9098FF",
")	c #000FD2",
"*	c #0012FC",
"+	c #3F4DFF",
",	c #4F5BFF",
"-	c #5763FF",
".	c #6570FF",
"0	c #646FFF",
"1	c #000DB7",
"2	c #0010E1",
"3	c #0315FF",
"4	c #1526FF",
"5	c #1F2FFF",
"6	c #3240FF",
"7	c #3A48FF",
"8	c #000CB0",
"9	c #000FD9",
":	c #0012F8",
";	c #0012FF",
"<	c #000FD1",
"=	c #00065A",
">	c #000112",
"?	c #0816D1",
"@	c #2030FF",
"A	c #2C3BFF",
"B	c #000CAD",
"C	c #000432",
"D	c black",
"E	c #00010B",
"F	c #000EC4",
"G	c #777777",
"H	c #BBBBBB",
"I	c #1925C4",
"J	c #000875",
"K	c #888888",
"L	c white",
"M	c #000218",
"N	c #999999",
"O	c #111A89",
"P	c #000A96",
"Q	c #222222",
"R	c #AAAAAA",
"S	c #444444",
"T	c #666666",
"U	c #010425",
"V	c #000ECE",
"W	c #000DB2",
"X	c #CCCCCC",
"Y	c #0D1468",
"Z	c #2835E5",
"[	c #000546",
"]	c #EEEEEE",
"^	c #232FCB",
"_	c #000CA7",
"`	c #000324",
"a	c #050725",
"b	c #000761",
"c	c #0713B0",
"d	c #000CAB",
"e	c #0011ED",
"f	c #0011F4",
"g	c #000FDB",
"h	c #000A95",
"i	c #000876",
"j	c #000CAF",
"k	c #0010E8",
"l	c #091AFF",
"m	c #1D2DFF",
"n	c #000B9A",
"o	c #000CAE",
"p	c #000EC1",
"q	c #000EC6",
"r	c #000ECB",
"s	c #0011F0",
"t	c #000A89",
"u	c #000986",
"v	c #000A8B",
"w	c #000A8C",
"x	c #000A92",
"y	c #000ECA",
"!#$%%%%%%%%%%&'(",
")*+,,,,,,,,,,-.0",
"1234444444444567",
"89:;;;;;;<=>=?@A",
"8BCDDDE1FDGHGDIA",
"8JKLLLHMDNLHLNOA",
"8PQGLRNDSLTDDUIA",
"8VWDLGDDXHDDDDYZ",
"89:DLG[DLG]LLLS^",
"89:DLG[DLQRTSLDZ",
"8_`DLGDDLSDQLNaA",
"8JNLLLLDNLLLXDIA",
"8_`DDDDbDSGQDc@A",
"d<efffffghijk:lm",
"nopqqqqqqqqqqrgs",
"tuvwwwwwwwwwwx_y"};