/* XPM */ 
static char * g_LauncherBusyIconXpm[] = {
"16 16 236 2",
"  	c None",
"! 	c #0D1EFA",
"# 	c #5A66FF",
"$ 	c #939BFF",
"% 	c #A9AFFF",
"& 	c #B6BBFF",
"' 	c #C0C5FF",
"( 	c #C7CBFF",
") 	c #CBCFFF",
"* 	c #CCD0FF",
"+ 	c #C8CCFF",
", 	c #C1C6FF",
"- 	c #B8BDFF",
". 	c #ABB1FF",
"0 	c #A2A9FF",
"1 	c #A2A8FF",
"2 	c #969EFF",
"3 	c #1321D5",
"4 	c #2938FC",
"5 	c #7680FF",
"6 	c #8D8AC4",
"7 	c #473B38",
"8 	c #130F0B",
"9 	c #080604",
": 	c black",
"; 	c #010101",
"< 	c #19120C",
"= 	c #281D15",
"> 	c #766E91",
"? 	c #8A93FF",
"@ 	c #8089FF",
"A 	c #717BFF",
"B 	c #1622BC",
"C 	c #323FE5",
"D 	c #5C68FF",
"E 	c #030302",
"F 	c #968060",
"G 	c #D6BE91",
"H 	c #E3CB9B",
"I 	c #E8CA9B",
"J 	c #E5C296",
"K 	c #E0B98E",
"L 	c #BE9674",
"M 	c #98714E",
"N 	c #010000",
"O 	c #727CFF",
"P 	c #5E69FF",
"Q 	c #4D5AFF",
"R 	c #1621B5",
"S 	c #3440DF",
"T 	c #5E69FA",
"U 	c #5C607F",
"V 	c #65574C",
"W 	c #CE9D71",
"X 	c #BC8855",
"Y 	c #AF783E",
"Z 	c #A8702F",
"[ 	c #935F20",
"] 	c #906227",
"^ 	c #685131",
"_ 	c #383A3A",
"` 	c #6A72DE",
"a 	c #525EFF",
"b 	c #424FFF",
"c 	c #141FB5",
"d 	c #303AB8",
"e 	c #595C67",
"f 	c #777B69",
"g 	c #30353B",
"h 	c #E9EFF5",
"i 	c #F2F4F6",
"j 	c #E7EFF6",
"k 	c #D5E6F7",
"l 	c #BED1E5",
"m 	c #D0DAE3",
"n 	c #4E5864",
"o 	c #686F6F",
"p 	c #616148",
"q 	c #4952CD",
"r 	c #3F4DFF",
"s 	c #0F1AB3",
"t 	c #262D84",
"u 	c #ABABA3",
"v 	c white",
"w 	c #6F7780",
"x 	c #555F6A",
"y 	c #EBF0F6",
"z 	c #E1EBF6",
"{ 	c #D7E7F8",
"| 	c #D5E2EF",
"} 	c #6A7787",
"~ 	c #323941",
" !	c #FEFEFE",
"!!	c #BABAB2",
"#!	c #394198",
"$!	c #3B49FF",
"%!	c #0A16B2",
"&!	c #1C259F",
"'!	c #565649",
"(!	c #B0B0A1",
")!	c #767E81",
"*!	c #535E68",
"+!	c #DEEAF6",
",!	c #DEEBF9",
"-!	c #687788",
".!	c #4C5559",
"0!	c #A6A780",
"1!	c #747456",
"2!	c #444650",
"3!	c #3640CA",
"4!	c #3644FF",
"5!	c #0713B2",
"6!	c #1522D1",
"7!	c #313CBD",
"8!	c #5C5C45",
"9!	c #DDDDC3",
":!	c #5A615E",
";!	c #68727B",
"<!	c #9BAAB9",
"=!	c #292F36",
">!	c #BFBF8E",
"?!	c #A0A077",
"@!	c #66664C",
"A!	c #38382A",
"B!	c #252B73",
"C!	c #303CE6",
"D!	c #1523DB",
"E!	c #3140F9",
"F!	c #575E62",
"G!	c #6C767E",
"H!	c #9DABBA",
"I!	c #272D33",
"J!	c #FBFBF8",
"K!	c #565652",
"L!	c #2B36CC",
"M!	c #1C29DC",
"N!	c #3C4AF9",
"O!	c #6B6B50",
"P!	c #6E7576",
"Q!	c #586069",
"R!	c #EAF1F9",
"S!	c #E7F1FB",
"T!	c #687585",
"U!	c #4C555C",
"V!	c #C2C3AD",
"W!	c #999983",
"X!	c #202018",
"Y!	c #323FE6",
"Z!	c #111CB4",
"[!	c #2A34B2",
"]!	c #505257",
"^!	c #858563",
"_!	c #68717A",
"`!	c #535D69",
"a!	c #ECF0F5",
"b!	c #F4F7F9",
"c!	c #F2F7FD",
"d!	c #D9E4F0",
"e!	c #5D6E7F",
"f!	c #293238",
"g!	c #FDFEFE",
"h!	c #BCBCB3",
"i!	c #323442",
"j!	c #3D4AFF",
"k!	c #1924B6",
"l!	c #363C8B",
"m!	c #C0C0B6",
"n!	c #B0B5BA",
"o!	c #2C333A",
"p!	c #E5ECF4",
"q!	c #F4F6F8",
"r!	c #F6F7F8",
"s!	c #F4F9FD",
"t!	c #C0D3E5",
"u!	c #C9D8E6",
"v!	c #44515F",
"w!	c #6C737B",
"x!	c #67674D",
"y!	c #4D57CE",
"z!	c #4351FF",
"{!	c #1D28B7",
"|!	c #3D46B7",
"}!	c #6A6C68",
"~!	c #575D58",
" #	c #56626F",
"!#	c #EAF0F6",
"##	c #F6F7F6",
"$#	c #F0F6FC",
"%#	c #C8D6E5",
"&#	c #C4D3E1",
"'#	c #718296",
"(#	c #31393C",
")#	c #747BCA",
"*#	c #5965FF",
"+#	c #4654FF",
",#	c #1F2AB3",
"-#	c #3F4AD9",
".#	c #6A74F2",
"0#	c #040302",
"1#	c #C6AA7F",
"2#	c #DFC595",
"3#	c #E3C598",
"4#	c #E4C195",
"5#	c #E0B88E",
"6#	c #DBAF88",
"7#	c #BF967B",
"8#	c #AB7C55",
"9#	c #010100",
":#	c #6D77FA",
";#	c #4955FF",
"<#	c #3A48FF",
"=#	c #1D27A3",
">#	c #3C43B3",
"?#	c #53485F",
"@#	c #392D2B",
"A#	c #1C1510",
"B#	c #090604",
"C#	c #060401",
"D#	c #140D05",
"E#	c #2A1F17",
"F#	c #423749",
"G#	c #3B44D3",
"H#	c #1F2EF1",
"I#	c #161F91",
"J#	c #283094",
"K#	c #4148A1",
"L#	c #5D63AB",
"M#	c #757AB3",
"N#	c #868BB9",
"O#	c #9195BD",
"P#	c #979BBF",
"Q#	c #767BB4",
"R#	c #5E64AC",
"S#	c #434AA7",
"T#	c #2933B2",
"U#	c #1623CD",
"! # $ % & ' ( ) * + , - . 0 1 2 ",
"3 4 5 6 7 8 9 : : ; < = > ? @ A ",
"B C D E F G H I J K L M N O P Q ",
"R S T U V W X Y Z [ ] ^ _ ` a b ",
"c d e f g h i j k l m n o p q r ",
"s t u v w x y z { | } ~  !!!#!$!",
"%!&!'!(!v )!*!+!,!-!.!0!1!2!3!4!",
"5!6!7!8!v 9!:!;!<!=!>!?!@!A!B!C!",
"5!D!E!8!v 9!F!G!H!I!J!v v v K!L!",
"%!M!N!O!v P!Q!R!S!T!U!V!W!v X!Y!",
"Z![!]!^!_!`!a!b!c!d!e!f!g!h!i!j!",
"k!l!m!n!o!p!q!r!s!t!u!v!w!x!y!z!",
"{!|!}!~! #!###r!$#%#&#'#(#)#*#+#",
",#-#.#0#1#2#3#4#5#6#7#8#9#:#;#<#",
"=#>#?#@#A#B#; : : 9#C#D#E#F#G#H#",
"I#J#K#L#M#N#O#P#P#O#N#Q#R#S#T#U#"};