/* XPM */ 
static char * g_NewUpdateIconXpm[] = {
"16 16 182 2",
"  	c None",
"! 	c #0012FA",
"# 	c #4653FF",
"$ 	c #7982FF",
"% 	c #848DFF",
"& 	c #BA3962",
"' 	c #D80A09",
"( 	c #E96558",
") 	c #EE8773",
"* 	c #F07946",
"+ 	c #F68835",
", 	c #F99537",
"- 	c #FA9737",
". 	c #FCBC7E",
"0 	c #000FD2",
"1 	c #0012FC",
"2 	c #3F4DFF",
"3 	c #4F5BFF",
"4 	c #AD2154",
"5 	c #D80705",
"6 	c #EC7D6D",
"7 	c #F29476",
"8 	c #F48032",
"9 	c #FA9537",
": 	c #F9A540",
"; 	c #F8B94D",
"< 	c #F7C857",
"= 	c #F9E296",
"> 	c #000DB7",
"? 	c #0010E1",
"@ 	c #0315FF",
"A 	c #1526FF",
"B 	c #8F1262",
"C 	c #D70605",
"D 	c #ED7F6F",
"E 	c #F39B77",
"F 	c #F88D35",
"G 	c #F9A741",
"H 	c #F7C153",
"I 	c #F6D45E",
"J 	c #F6D861",
"K 	c #F9E699",
"L 	c #000CB0",
"M 	c #000FD9",
"N 	c #0012F8",
"O 	c #4F0DA3",
"P 	c #D30509",
"Q 	c #F99136",
"R 	c #F8B44A",
"S 	c #F6D05C",
"T 	c #E3D45C",
"U 	c #ADC74E",
"V 	c #7CBC41",
"W 	c #96CF7F",
"X 	c #C2061D",
"Y 	c #F8BA4E",
"Z 	c #F6D660",
"[ 	c #F5D861",
"] 	c #ABC64D",
"^ 	c #64B73B",
"_ 	c #4AB234",
"` 	c #47B133",
"a 	c #88CC7C",
"b 	c #820A65",
"c 	c #DA0501",
"d 	c #EE8672",
"e 	c #F48134",
"f 	c #EAD55E",
"g 	c #8BBF44",
"h 	c #4CB234",
"i 	c #5BA376",
"j 	c #6A99A7",
"k 	c #A3BAD2",
"l 	c #C80615",
"m 	c #EB7667",
"n 	c #F49D78",
"o 	c #48B133",
"p 	c #51AA54",
"q 	c #6A98A7",
"r 	c #A4BAD6",
"s 	c #A5BAD7",
"t 	c #A2B8D6",
"u 	c #560B84",
"v 	c #D90502",
"w 	c #EE8470",
"x 	c #80A3BC",
"y 	c #88A4CA",
"z 	c #6387BA",
"{ 	c #4A73B1",
"| 	c #A70733",
"} 	c #E96356",
"~ 	c #F29576",
" !	c #7091BF",
"!!	c #4973B1",
"#!	c #2C43E9",
"$!	c #2C3BFF",
"%!	c #852354",
"&!	c #FC3601",
"'!	c #F55732",
"(!	c #F85B1F",
")!	c #FF4105",
"*!	c #FC7323",
"+!	c #FF4004",
",!	c #F34E0B",
"-!	c #DA520B",
".!	c #C95C27",
"0!	c #BC999F",
"1!	c #B87979",
"2!	c #925C6A",
"3!	c #742891",
"4!	c #DC3828",
"5!	c #873A91",
"6!	c #EE360C",
"7!	c #FFF2EE",
"8!	c #FF6E44",
"9!	c #FE4005",
":!	c #FFEDE8",
";!	c #FFF6F4",
"<!	c #FFEDE7",
"=!	c #FFE4DD",
">!	c #FFBDAB",
"?!	c #FF430C",
"@!	c #FF8866",
"A!	c #FFAA91",
"B!	c #D93428",
"C!	c #FFE0D7",
"D!	c #FF4B18",
"E!	c #F63706",
"F!	c #FFF8F6",
"G!	c #FF3E05",
"H!	c #FF9677",
"I!	c #F6470B",
"J!	c #FFF1ED",
"K!	c #FF9678",
"L!	c #FFCABB",
"M!	c #FFEEE9",
"N!	c #FF7B56",
"O!	c #FFE9E3",
"P!	c #E8391C",
"Q!	c #F43708",
"R!	c #FFCBBC",
"S!	c #FFFAF9",
"T!	c #FFE2DA",
"U!	c #FFD3C7",
"V!	c #FFB49F",
"W!	c #FFEAE4",
"X!	c #FFF5F2",
"Y!	c #FFD8CD",
"Z!	c #FFC9BA",
"[!	c #C63A45",
"]!	c #F43707",
"^!	c #F4370A",
"_!	c #FFEEEA",
"`!	c #E83516",
"a!	c #C73036",
"b!	c #FF3B03",
"c!	c #FFC7B7",
"d!	c #FFBDAA",
"e!	c #FFFCFB",
"f!	c #FF5727",
"g!	c #6531AE",
"h!	c white",
"i!	c #FFCDC0",
"j!	c #FFE7E0",
"k!	c #FFDED5",
"l!	c #F63707",
"m!	c #FFAF98",
"n!	c #FF8F6F",
"o!	c #FF3900",
"p!	c #0011F0",
"q!	c #8B243E",
"r!	c #F43706",
"s!	c #8B243F",
"t!	c #96263A",
"u!	c #F93803",
"v!	c #DA3214",
"w!	c #C72F1F",
"x!	c #8D243F",
"y!	c #F63705",
"z!	c #982639",
"{!	c #962645",
"|!	c #000ECA",
"! # $ % % % & ' ( ) * + , - - . ",
"0 1 2 3 3 4 5 6 7 8 9 - : ; < = ",
"> ? @ A B C D E F - G H I J J K ",
"L M N O P 6 E Q - R S J T U V W ",
"L M N X ( 7 F - Y Z [ ] ^ _ ` a ",
"L M b c d e - R Z f g h ` i j k ",
"L M l m n 9 G S [ g o p q r s t ",
"L u v w + - H J ] h p x s y z { ",
"L | } ~ , : I T ^ ` q s  !!!#!$!",
"%!&!'!(!)!*!+!,!-!.!0!1!2!3!4!5!",
"6!7!8!9!:!8!;!<!=!>!?!@!A!B!C!D!",
"E!F!7!G!;!H!:!I!?!J!K!L!M!N!O!P!",
"Q!;!R!H!;!H!S!T!U!V!W!X!O!Y!Z![!",
"]!;!^!7!;!H!_!`!a!b!S!c!d!e!f!g!",
"]!;!Q!H!h!H!i!j!k!l!F!m!n!h!o!p!",
"q!r!s!t!o!t!u!v!w!x!y!z!t!o!{!|!"};