/* XPM */ 
static char * g_PromptIconXpm[] = {
"16 16 98 2",
"  	c None",
"! 	c black",
"# 	c #B1B3B3",
"$ 	c #AEAFB0",
"% 	c #B2B2B3",
"& 	c #B5B5B6",
"' 	c #B8B8B9",
"( 	c #BBBBBC",
") 	c #BEBEBE",
"* 	c #BFC0C0",
"+ 	c #C0C1C1",
", 	c #C2C2C2",
"- 	c #C2C2C3",
". 	c #C5C5C5",
"0 	c #BFBFBF",
"1 	c #B5B7B7",
"2 	c #B2B4B4",
"3 	c #020202",
"4 	c #101010",
"5 	c #0F0F0F",
"6 	c #0E0E0E",
"7 	c #0D0D0D",
"8 	c #0C0C0C",
"9 	c #0B0B0B",
": 	c #080808",
"; 	c #B3B5B5",
"< 	c #ABABAB",
"= 	c #5B5B5B",
"> 	c #494949",
"? 	c #4B4B4B",
"@ 	c #484848",
"A 	c #464646",
"B 	c #434343",
"C 	c #444444",
"D 	c #323232",
"E 	c #0A0A0A",
"F 	c #B4B6B6",
"G 	c #616161",
"H 	c #C9C9C9",
"I 	c #2D2D2D",
"J 	c #3C3C3C",
"K 	c #404040",
"L 	c #3D3D3D",
"M 	c #3B3B3B",
"N 	c #393939",
"O 	c #1C1C1C",
"P 	c #B5B6B6",
"Q 	c #8F8F8F",
"R 	c #383838",
"S 	c #2E2E2E",
"T 	c #353535",
"U 	c #2B2B2B",
"V 	c #2C2C2C",
"W 	c #363636",
"X 	c #373737",
"Y 	c #292929",
"Z 	c #131313",
"[ 	c #111111",
"] 	c #B6B8B8",
"^ 	c #2F2F2F",
"_ 	c #3E3E3E",
"` 	c #242424",
"a 	c #262626",
"b 	c #232323",
"c 	c #202020",
"d 	c #1B1B1B",
"e 	c #1E1D1D",
"f 	c #424242",
"g 	c #B6B7B7",
"h 	c #3F3F3F",
"i 	c #454545",
"j 	c #4A4A4A",
"k 	c #585858",
"l 	c #565656",
"m 	c #636363",
"n 	c #696969",
"o 	c #6D6D6D",
"p 	c #707070",
"q 	c #717171",
"r 	c #727272",
"s 	c #6E6E6E",
"t 	c #646464",
"u 	c #B2B3B4",
"v 	c #E9EAEA",
"w 	c #EEEFEF",
"x 	c #EAEBEC",
"y 	c #E8E9EA",
"z 	c #E6E6E7",
"{ 	c #E3E4E5",
"| 	c #E1E2E3",
"} 	c #DFE0E1",
"~ 	c #DCDEDF",
" !	c #DADCDD",
"!!	c #D8DADA",
"#!	c #D7D9DA",
"$!	c #D1D3D4",
"%!	c #BFC0C1",
"&!	c #AEB0B0",
"                                ",
"                                ",
"# # $ % & ' ( ) * + , - . , 0 1 ",
"2 3 4 5 5 5 5 6 6 7 7 8 9 3 : 1 ",
"; ! < = > ? ? @ A B C D E ! ! 1 ",
"F ! G H I J K L M N O ! ! ! ! F ",
"P ! Q J R S T T U 9 ! ! ! ! ! F ",
"1 ! V W X T N Y Z [ 4 7 : ! ! ; ",
"] E ^ M _ J V ` a a b c d E E ; ",
"] e T f _ T W N N R T D I e e 2 ",
"] e T f _ T W N N R T D I e e 2 ",
"g I R h h i @ j j > A f J I I 2 ",
"1 k l m n o p q r p s n t k k # ",
"u v w x y z { | } ~  !!!#!$!%!&!",
"                                ",
"                                "};