/* XPM */ 
static char * g_SetupIconXpm[] = {
"16 16 123 2",
"  	c None",
"! 	c #ADABAC",
"# 	c #B1AFAF",
"$ 	c black",
"% 	c #777575",
"& 	c #C1C0C1",
"' 	c #B9B9B9",
"( 	c #AEAFAE",
") 	c #211E1E",
"* 	c #F4F4F4",
"+ 	c #A19F9E",
", 	c #959595",
"- 	c white",
". 	c #E4E4E4",
"0 	c #504E4F",
"1 	c #1E1B1A",
"2 	c #908D8D",
"3 	c #D8D3D1",
"4 	c #EFEFEF",
"5 	c #F7F7F7",
"6 	c #8F8F8F",
"7 	c #918F92",
"8 	c #ACA9AC",
"9 	c #979797",
": 	c #555555",
"; 	c #847E7C",
"< 	c #D0CCCA",
"= 	c #4A4A4A",
"> 	c #E9E9E9",
"? 	c #C8C8C9",
"@ 	c #ABADB0",
"A 	c #929295",
"B 	c #FCFCFC",
"C 	c #464646",
"D 	c #837D7A",
"E 	c #CFCAC7",
"F 	c #DDDDDD",
"G 	c #A4A4A4",
"H 	c #E7E7E7",
"I 	c #CACACA",
"J 	c #827B78",
"K 	c #F5BCBA",
"L 	c #895168",
"M 	c #FDFCFC",
"N 	c #A5A5A5",
"O 	c #EBEBEB",
"P 	c #D4D4D4",
"Q 	c #4D4D4D",
"R 	c #EA898A",
"S 	c #E44F4E",
"T 	c #B01A1A",
"U 	c #FBF6F7",
"V 	c #514F64",
"W 	c #343448",
"X 	c #5D5D5D",
"Y 	c #252525",
"Z 	c #D51F1F",
"[ 	c #F2AEAB",
"] 	c #AA1919",
"^ 	c #981315",
"_ 	c #103090",
"` 	c #0A5FD4",
"a 	c #5F090C",
"b 	c #D3221D",
"c 	c #F3B4B2",
"d 	c #B2181A",
"e 	c #AE181A",
"f 	c #1F6BD0",
"g 	c #247EE6",
"h 	c #0042CB",
"i 	c #6E87D4",
"j 	c #B91819",
"k 	c #F0A4A2",
"l 	c #E45050",
"m 	c #981616",
"n 	c #1D6AD0",
"o 	c #247EE5",
"p 	c #0146CE",
"q 	c #2A88EB",
"r 	c #162B80",
"s 	c #A51719",
"t 	c #B01919",
"u 	c #F9DDDC",
"v 	c #E55758",
"w 	c #8C1515",
"x 	c #1762CE",
"y 	c #2681E8",
"z 	c #0144CE",
"{ 	c #2986EB",
"| 	c #083CA6",
"} 	c #A11818",
"~ 	c #F9E0E1",
" !	c #E76365",
"!!	c #901515",
"#!	c #1E68D5",
"$!	c #2884E9",
"%!	c #0041CB",
"&!	c #2A87EB",
"'!	c #083EAA",
"(!	c #A41818",
")!	c #C62626",
"*!	c #F9E0E0",
"+!	c #E76264",
",!	c #A31818",
"-!	c #074DCD",
".!	c #2A86EB",
"0!	c #0245CD",
"1!	c #0641B2",
"2!	c #A71919",
"3!	c #D02A2A",
"4!	c #F9DEDF",
"5!	c #E55859",
"6!	c #D9413D",
"7!	c #041646",
"8!	c #1664DE",
"9!	c #2E8CEC",
":!	c #072C7D",
";!	c #700F0F",
"<!	c #E34C4C",
"=!	c #E76767",
">!	c #060306",
"?!	c #060816",
"@!	c #170202",
"! #                 % & ' (     ",
") * +             , - . 0       ",
"  1 2 3           4 5 6 7 8 9 : ",
"      ; <       = 4 > ? @ A B C ",
"        D E       F G H . 4 I   ",
"          J K   L M G N O P Q   ",
"            R S T U V W X Y     ",
"            Z [ ] ^ _           ",
"          ` a b c d e           ",
"        f g h i j k l m         ",
"      n o p q r s t u v w       ",
"    x y z { |     } T ~  !!!    ",
"  #!$!%!&!'!        (!)!*!+!,!  ",
"-!.!0!.!1!            2!3!4!5!6!",
"7!8!9!:!                ;!<!=!  ",
"  >!?!                    @!    "};