/* XPM */ 
static char * g_SlnIconXpm[] = {
"16 16 17 1",
" 	c None",
"!	c black",
"#	c #33FF33",
"$	c #FFFF00",
"%	c #FF9900",
"&	c #FF6633",
"'	c #0099FF",
"(	c #00FF00",
")	c #FF6600",
"*	c #0066CC",
"+	c #00CC00",
",	c #CC3300",
"-	c #009900",
".	c #008000",
"0	c #CC6600",
"1	c #006666",
"2	c #006699",
"                ",
"                ",
"                ",
"  #$$%   %&&'   ",
" (#$$$% %&&)'*  ",
"++#%$$$%&&),'** ",
"-+# %$%&&), '*+ ",
"-+   %&&),   +- ",
".*' %&&),0% #+- ",
"1*'%&&),0%$%#+- ",
" 2'&&), %$$$#+  ",
"  2&),   %%%+   ",
"                ",
"                ",
"                ",
"                "};