/* XPM */ 
static char* g_Throbber4IconXpm[][2] = {
"16 16 217 2",
"  	c None",
"! 	c #0012FA",
"# 	c #4653FF",
"$ 	c #7982FF",
"% 	c #848DFF",
"& 	c #888FEE",
"' 	c #8C8EA1",
"( 	c #9495A7",
") 	c #888FEC",
"* 	c #8A92FF",
"+ 	c #959CFF",
", 	c #9098FF",
"- 	c #000FD2",
". 	c #0012FC",
"0 	c #4D5AFF",
"1 	c #6570FF",
"2 	c #525EFF",
"3 	c #4F5BFF",
"4 	c #646CDF",
"5 	c #828289",
"6 	c #909096",
"7 	c #666EDE",
"8 	c #505CFE",
"9 	c #5863F4",
": 	c #5B67F8",
"; 	c #646FFF",
"< 	c #000DB7",
"= 	c #101FE3",
"> 	c #A0A7FF",
"? 	c #D8DAFF",
"@ 	c #6F79FF",
"A 	c #1627FF",
"B 	c #3A46DD",
"C 	c #7B7C84",
"D 	c #8D8E94",
"E 	c #3F4BDD",
"F 	c #1526FF",
"G 	c #414CD5",
"H 	c #777AA1",
"I 	c #676DBC",
"J 	c #3845F8",
"K 	c #3A48FF",
"L 	c #000CB0",
"M 	c #1D2ADD",
"N 	c #D0D3FE",
"O 	c white",
"P 	c #E8EAFF",
"Q 	c #606BFF",
"R 	c #2E3BDC",
"S 	c #81828C",
"T 	c #91919A",
"U 	c #3440DD",
"V 	c #3541DA",
"W 	c #71738A",
"X 	c #7B7B7B",
"Y 	c #7A7DA4",
"Z 	c #2F3DF2",
"[ 	c #2C3BFF",
"] 	c #0211D9",
"^ 	c #5D68FB",
"_ 	c #E6E8FF",
"` 	c #E1E3FF",
"a 	c #3B46D7",
"b 	c #6F73B2",
"c 	c #767AB6",
"d 	c #3E49D9",
"e 	c #747695",
"f 	c #818181",
"g 	c #86879D",
"h 	c #3F4AD6",
"i 	c #2131FE",
"j 	c #000FD9",
"k 	c #0214F8",
"l 	c #5A66FF",
"m 	c #DFE1FF",
"n 	c #DEE0FF",
"o 	c #2633E8",
"p 	c #0E1EF6",
"q 	c #0E1FF5",
"r 	c #2734E8",
"s 	c #7C7E9B",
"t 	c #888BA5",
"u 	c #3A45D9",
"v 	c #0C1CFE",
"w 	c #2030FF",
"x 	c #2F39BF",
"y 	c #525CE5",
"z 	c #535FFA",
"{ 	c #5662FF",
"| 	c #636EFF",
"} 	c #3B49FF",
"~ 	c #0416FE",
" !	c #0012FF",
"!!	c #0617FF",
"#!	c #2E3CED",
"$!	c #424DDB",
"%!	c #323FDF",
"&!	c #3642E1",
"'!	c #4550E1",
"(!	c #414DEF",
")!	c #D8DAF3",
"*!	c #F7F7FE",
"+!	c #F7F8FF",
",!	c #F8F8FF",
"-!	c #BFC4FF",
".!	c #1929FF",
"0!	c #1121F6",
"1!	c #777CB7",
"2!	c #9C9DA5",
"3!	c #9D9EA7",
"4!	c #9FA0A9",
"5!	c #989ABB",
"6!	c #D5D7F2",
"7!	c #F4F5FD",
"8!	c #F5F6FF",
"9!	c #F6F7FF",
":!	c #BCC1FF",
";!	c #1828FF",
"<!	c #1121F5",
"=!	c #8488C2",
">!	c #AFB0B6",
"?!	c #B2B2B9",
"@!	c #B4B5BB",
"A!	c #A0A2C0",
"B!	c #2C36BE",
"C!	c #4C57E4",
"D!	c #4D5AFA",
"E!	c #515DFF",
"F!	c #3D4BFF",
"G!	c #0415FE",
"H!	c #0517FE",
"I!	c #2836E9",
"J!	c #434EDC",
"K!	c #3B47E3",
"L!	c #3F4BE5",
"M!	c #4F59E6",
"N!	c #4450F0",
"O!	c #525DF1",
"P!	c #C8CAE5",
"Q!	c #C8CBE9",
"R!	c #3442F7",
"S!	c #1626FB",
"T!	c #1525FB",
"U!	c #3845F7",
"V!	c #9598B4",
"W!	c #9093B0",
"X!	c #3945DE",
"Y!	c #0B1CFE",
"Z!	c #0312D9",
"[!	c #5863F1",
"]!	c #CCCDE3",
"^!	c #E2E2E2",
"_!	c #B9BBDA",
"`!	c #505BEB",
"a!	c #999DD6",
"b!	c #999DD9",
"c!	c #525DEB",
"d!	c #9EA0BC",
"e!	c #B8B8B8",
"f!	c #9597AE",
"g!	c #434DDE",
"h!	c #1E2BDC",
"i!	c #C3C6EE",
"j!	c #E8E8E8",
"k!	c #D1D3EA",
"l!	c #4A56EF",
"m!	c #4450ED",
"n!	c #C5C5CE",
"o!	c #C9CAD4",
"p!	c #434FF1",
"q!	c #414CE0",
"r!	c #A7A9BE",
"s!	c #BDBDBD",
"t!	c #8B8EB8",
"u!	c #313FF7",
"v!	c #000CAB",
"w!	c #101ED3",
"x!	c #969DEF",
"y!	c #C5C8F1",
"z!	c #5661F1",
"{!	c #0011F4",
"|!	c #434FE8",
"}!	c #C8C8CF",
"~!	c #CFCFD8",
" #	c #424EEC",
"!#	c #0111F4",
"##	c #454FDB",
"$#	c #9C9FC5",
"%#	c #767DD3",
"&#	c #1424FB",
"'#	c #1D2DFF",
"(#	c #000B9A",
")#	c #000CAE",
"*#	c #101DC4",
"+#	c #1C28CB",
",#	c #0311C7",
"-#	c #000EC6",
".#	c #434DCA",
"0#	c #CBCBD2",
"1#	c #D0D0D8",
"2#	c #424CCD",
"3#	c #0310C6",
"4#	c #1623C4",
"5#	c #0D1AC9",
"6#	c #000FDB",
"7#	c #0011F0",
"8#	c #000A89",
"9#	c #000986",
":#	c #000A8B",
";#	c #000A8C",
"<#	c #28309A",
"=#	c #B8B9CD",
">#	c #B9BAD0",
"?#	c #262E9A",
"@#	c #000A92",
"A#	c #000CA7",
"B#	c #000ECA",
"! # $ % % % & ' ( ) % % % * + , ",
"- . 0 1 2 3 4 5 6 7 3 8 9 : 1 ; ",
"< = > ? @ A B C D E F G H I J K ",
"L M N O P Q R S T U V W X Y Z [ ",
"L ] ^ _ O ` a b c d e f g h i [ ",
"L j k l m n o p q r s t u v w [ ",
"x y z { | } ~  ! !!!#!$!%!&!'!(!",
")!*!+!,!-!.! ! ! ! !0!1!2!3!4!5!",
"6!7!8!9!:!;! ! ! ! !<!=!>!?!@!A!",
"B!C!D!E!; F!G! ! !H!I!J!K!L!M!N!",
"L j k O!P!Q!R!S!T!U!V!W!X!Y!w [ ",
"L Z![!]!^!_!`!a!b!c!d!e!f!g!i [ ",
"L h!i!j!k!l!m!n!o!p!q!r!s!t!u![ ",
"v!w!x!y!z!{!|!}!~! #!###$#%#&#'#",
"(#)#*#+#,#-#.#0#1#2#-#3#4#5#6#7#",
"8#9#:#;#;#;#<#=#>#?#;#;#;#@#A#B#"};