/* XPM */ 
static char * g_Throbber2IconXpm[] = {
"16 16 213 2",
"  	c None",
"! 	c #0012FA",
"# 	c #4653FF",
"$ 	c #7982FF",
"% 	c #848DFF",
"& 	c #949BFA",
"' 	c #CED0E3",
"( 	c #CCCDDF",
") 	c #939BF8",
"* 	c #8A92FF",
"+ 	c #959CFF",
", 	c #9098FF",
"- 	c #000FD2",
". 	c #0012FC",
"0 	c #4754FA",
"1 	c #5C66F5",
"2 	c #505CFE",
"3 	c #4F5BFF",
"4 	c #7A82F5",
"5 	c #D3D4DB",
"6 	c #CDCED4",
"7 	c #7981F1",
"8 	c #515DFF",
"9 	c #626CFE",
": 	c #616DFE",
"; 	c #6570FF",
"< 	c #646FFF",
"= 	c #000DB7",
"> 	c #0C1BDE",
"? 	c #777ED6",
"@ 	c #A0A3C7",
"A 	c #525CE2",
"B 	c #1526FF",
"C 	c #505CF4",
"D 	c #CFD0D9",
"E 	c #C8C9D0",
"F 	c #525DEF",
"G 	c #646FF8",
"H 	c #C8CCF3",
"I 	c #A2A8F6",
"J 	c #3F4CFE",
"K 	c #3A48FF",
"L 	c #000CB0",
"M 	c #1522D5",
"N 	c #898CB7",
"O 	c #BDBDBD",
"P 	c #A7A9BE",
"Q 	c #414CE0",
"R 	c #434FF1",
"S 	c #C9CAD4",
"T 	c #C5C5CE",
"U 	c #4450ED",
"V 	c #4A56EF",
"W 	c #D1D3EA",
"X 	c #E8E8E8",
"Y 	c #C5C8EF",
"Z 	c #3A48FD",
"[ 	c #2C3BFF",
"] 	c #0110D9",
"^ 	c #3C48DA",
"_ 	c #9597AE",
"` 	c #B8B8B8",
"a 	c #9EA0BC",
"b 	c #525DEB",
"c 	c #999DD9",
"d 	c #999DD6",
"e 	c #505BEB",
"f 	c #B9BBDA",
"g 	c #E2E2E2",
"h 	c #CCCDE3",
"i 	c #5E69F5",
"j 	c #2232FF",
"k 	c #000FD9",
"l 	c #0113F7",
"m 	c #3945DE",
"n 	c #9093B0",
"o 	c #9598B4",
"p 	c #3845F7",
"q 	c #1525FB",
"r 	c #1626FB",
"s 	c #3442F7",
"t 	c #C8CBE9",
"u 	c #C8CAE5",
"v 	c #525DF1",
"w 	c #0C1DFE",
"x 	c #2030FF",
"y 	c #202AB0",
"z 	c #3943CC",
"{ 	c #3945E0",
"| 	c #3B47E3",
"} 	c #434EDC",
"~ 	c #2836E9",
" !	c #0517FE",
"!!	c #0012FF",
"#!	c #0415FE",
"$!	c #3D4BFF",
"%!	c #5460FF",
"&!	c #626EFF",
"'!	c #505DFF",
"(!	c #999BB4",
")!	c #B3B4BA",
"*!	c #B1B2B9",
"+!	c #AFB0B6",
",!	c #8488C2",
"-!	c #1121F5",
".!	c #1828FF",
"0!	c #BCC1FF",
"1!	c #F6F7FF",
"2!	c #F5F6FF",
"3!	c #DCDFFF",
"4!	c #9192AD",
"5!	c #9E9FA7",
"6!	c #9D9DA6",
"7!	c #9C9DA5",
"8!	c #777CB7",
"9!	c #1121F6",
":!	c #1929FF",
";!	c #BFC4FF",
"<!	c #F8F8FF",
"=!	c #F7F8FF",
">!	c #F8F9FF",
"?!	c #DFE1FF",
"@!	c #1C26AE",
"A!	c #2E39C7",
"B!	c #2F3CDD",
"C!	c #323FDF",
"D!	c #424DDB",
"E!	c #2E3CED",
"F!	c #0617FF",
"G!	c #0416FE",
"H!	c #3B49FF",
"I!	c #636EFF",
"J!	c #5662FF",
"K!	c #5A65FF",
"L!	c #6873FF",
"M!	c #535FFF",
"N!	c #0213F7",
"O!	c #3A45D9",
"P!	c #888BA5",
"Q!	c #7C7E9B",
"R!	c #2734E8",
"S!	c #0E1FF5",
"T!	c #0E1EF6",
"U!	c #2633E8",
"V!	c #DEE0FF",
"W!	c #5A66FF",
"X!	c #0C1DFF",
"Y!	c #0211D8",
"Z!	c #3944D2",
"[!	c #86879D",
"]!	c #818181",
"^!	c #747695",
"_!	c #3E49D9",
"`!	c #767AB6",
"a!	c #6F73B2",
"b!	c #3B46D7",
"c!	c #E1E3FF",
"d!	c white",
"e!	c #E6E8FF",
"f!	c #1320D0",
"g!	c #787BA3",
"h!	c #7B7B7B",
"i!	c #71738A",
"j!	c #3541DA",
"k!	c #3440DD",
"l!	c #91919A",
"m!	c #81828C",
"n!	c #2E3BDC",
"o!	c #606BFF",
"p!	c #E8EAFF",
"q!	c #D2D5FF",
"r!	c #3948FF",
"s!	c #000CAB",
"t!	c #0A18CD",
"u!	c #5C62B5",
"v!	c #73769F",
"w!	c #333ECE",
"x!	c #0011F4",
"y!	c #313DD6",
"z!	c #8C8D94",
"{!	c #7A7B84",
"|!	c #2B37D6",
"}!	c #0112F4",
"~!	c #626CF8",
" #	c #D4D7FD",
"!#	c #9FA6FC",
"##	c #1D2DFF",
"$#	c #000B9A",
"%#	c #000CAE",
"&#	c #0A17BE",
"'#	c #121EC1",
"(#	c #0210C5",
")#	c #000EC6",
"*#	c #303AB7",
"+#	c #8D8D94",
",#	c #7E7F87",
"-#	c #2C36B7",
".#	c #0412C7",
"0#	c #202CCD",
"1#	c #121FCF",
"2#	c #000FDB",
"3#	c #0011F0",
"4#	c #000A89",
"5#	c #000986",
"6#	c #000A8B",
"7#	c #000A8C",
"8#	c #1C248E",
"9#	c #808195",
":#	c #77788E",
";#	c #1A228E",
"<#	c #000A92",
"=#	c #000CA7",
">#	c #000ECA",
"! # $ % % % & ' ( ) % % % * + , ",
"- . 0 1 2 3 4 5 6 7 3 8 9 : ; < ",
"= > ? @ A B C D E F B G H I J K ",
"L M N O P Q R S T U V W X Y Z [ ",
"L ] ^ _ ` a b c d e f g h i j [ ",
"L k l m n o p q r s t u v w x [ ",
"y z { | } ~  !!!!!#!$!< 8 %!&!'!",
"(!)!*!+!,!-!!!!!!!!!.!0!1!2!2!3!",
"4!5!6!7!8!9!!!!!!!!!:!;!<!=!>!?!",
"@!A!B!C!D!E!F!!!!!G!H!I!J!K!L!M!",
"L k N!O!P!Q!R!S!T!U!V!?!W!X!x [ ",
"L Y!Z![!]!^!_!`!a!b!c!d!e!I!j [ ",
"L f!g!h!i!j!k!l!m!n!o!p!d!q!r![ ",
"s!t!u!v!w!x!y!z!{!|!}!~! #!#.!##",
"$#%#&#'#(#)#*#+#,#-#)#.#0#1#2#3#",
"4#5#6#7#7#7#8#9#:#;#7#7#7#<#=#>#"};