/* XPM */ 
static char * g_Throbber1IconXpm[] = {
"16 16 217 2",
"  	c None",
"! 	c #0012FA",
"# 	c #4653FF",
"$ 	c #7982FF",
"% 	c #848DFF",
"& 	c #99A1FF",
"' 	c #EBECFF",
"( 	c #ECEEFF",
") 	c #9BA2FF",
"* 	c #8A92FF",
"+ 	c #959CFF",
", 	c #9098FF",
"- 	c #000FD2",
". 	c #0012FC",
"0 	c #4B58FE",
"1 	c #636DFD",
"2 	c #515DFF",
"3 	c #4F5BFF",
"4 	c #838CFF",
"5 	c #F7F8FF",
"6 	c #F9FAFF",
"7 	c #8890FF",
"8 	c #505CFF",
"9 	c #636EFF",
": 	c #626DFF",
"; 	c #6570FF",
"< 	c #646FFF",
"= 	c #000DB7",
"> 	c #101FE2",
"? 	c #979EF6",
"@ 	c #C7CAEF",
"A 	c #656FF5",
"B 	c #1728FE",
"C 	c #5C68FF",
"D 	c #F6F6FF",
"E 	c #F8F8FF",
"F 	c #616DFF",
"G 	c #1728FF",
"H 	c #6A75FF",
"I 	c #D4D7FF",
"J 	c #ABB1FF",
"K 	c #404DFF",
"L 	c #3A48FF",
"M 	c #000CB0",
"N 	c #1C29DC",
"O 	c #C5C8F1",
"P 	c #E8E8E8",
"Q 	c #CCCDE3",
"R 	c #525DF1",
"S 	c #F6F7FF",
"T 	c #5662FF",
"U 	c #5A66FF",
"V 	c #E6E8FF",
"W 	c white",
"X 	c #D6D9FF",
"Y 	c #3C4AFF",
"Z 	c #2C3BFF",
"[ 	c #0312D9",
"] 	c #5662F4",
"^ 	c #D1D3EA",
"_ 	c #E2E2E2",
"` 	c #C8CAE5",
"a 	c #BCC1FF",
"b 	c #BFC4FF",
"c 	c #DFE1FF",
"d 	c #E8EAFF",
"e 	c #6873FF",
"f 	c #2333FF",
"g 	c #000FD9",
"h 	c #0012F8",
"i 	c #4A56EF",
"j 	c #B9BBDA",
"k 	c #C8CBE9",
"l 	c #3D4BFF",
"m 	c #1828FF",
"n 	c #1929FF",
"o 	c #3B49FF",
"p 	c #DEE0FF",
"q 	c #E1E3FF",
"r 	c #606BFF",
"s 	c #0B1CFF",
"t 	c #2030FF",
"u 	c #2831B7",
"v 	c #434ED7",
"w 	c #4350EB",
"x 	c #4450ED",
"y 	c #505BEB",
"z 	c #3442F7",
"{ 	c #0415FE",
"| 	c #0012FF",
"} 	c #0416FE",
"~ 	c #2633E8",
" !	c #3B46D7",
"!!	c #2E3BDC",
"#!	c #323EDD",
"$!	c #434EDF",
"%!	c #3E4BEE",
"&!	c #B8BAD3",
"'!	c #CBCBD2",
"(!	c #C8C8CF",
")!	c #C5C5CE",
"*!	c #999DD6",
"+!	c #1626FB",
",!	c #0E1EF6",
"-!	c #6F73B2",
".!	c #81828C",
"0!	c #7A7B84",
"1!	c #808089",
"2!	c #7E80A1",
"3!	c #B9BBD6",
"4!	c #D0D0D9",
"5!	c #CFCFD8",
"6!	c #C9CAD4",
"7!	c #999DD9",
"8!	c #1525FB",
"9!	c #0E1FF5",
":!	c #767AB6",
";!	c #91919A",
"<!	c #8D8D94",
"=!	c #8E8F96",
">!	c #8789A7",
"?!	c #2630B8",
"@!	c #424DDA",
"A!	c #424EEF",
"B!	c #434FF1",
"C!	c #525DEB",
"D!	c #3845F7",
"E!	c #0517FE",
"F!	c #0617FF",
"G!	c #2734E8",
"H!	c #3E49D9",
"I!	c #3440DD",
"J!	c #3843DD",
"K!	c #4651DE",
"L!	c #404CEC",
"M!	c #0112F8",
"N!	c #414CE0",
"O!	c #9EA0BC",
"P!	c #9598B4",
"Q!	c #2836E9",
"R!	c #1121F5",
"S!	c #1121F6",
"T!	c #2E3CED",
"U!	c #7C7E9B",
"V!	c #747695",
"W!	c #3541DA",
"X!	c #0A1BFF",
"Y!	c #0311D8",
"Z!	c #4550DD",
"[!	c #A7A9BE",
"]!	c #B8B8B8",
"^!	c #9093B0",
"_!	c #434EDC",
"`!	c #8488C2",
"a!	c #777CB7",
"b!	c #424DDB",
"c!	c #888BA5",
"d!	c #818181",
"e!	c #71738A",
"f!	c #3A45D5",
"g!	c #2131FE",
"h!	c #1624D4",
"i!	c #9C9FC6",
"j!	c #BDBDBD",
"k!	c #9597AE",
"l!	c #3945DE",
"m!	c #3B47E3",
"n!	c #AFB0B6",
"o!	c #9C9DA5",
"p!	c #323FDF",
"q!	c #3A45D9",
"r!	c #86879D",
"s!	c #7B7B7B",
"t!	c #7578A1",
"u!	c #2E3CF4",
"v!	c #000CAB",
"w!	c #0D1BCF",
"x!	c #767CCF",
"y!	c #898CB6",
"z!	c #3C47D7",
"{!	c #0112F3",
"|!	c #3944DD",
"}!	c #B1B2B9",
"~!	c #9D9DA6",
" #	c #2F3BDA",
"!#	c #0212F3",
"##	c #3944CF",
"$#	c #787BA2",
"%#	c #5C62B9",
"&#	c #1323F8",
"'#	c #1D2DFF",
"(#	c #000B9A",
")#	c #000CAE",
"*#	c #0C19C0",
"+#	c #1521C4",
",#	c #010FC6",
"-#	c #000EC6",
".#	c #3942BF",
"0#	c #B3B4B9",
"1#	c #9E9EA6",
"2#	c #2E38B9",
"3#	c #0210C5",
"4#	c #131FC0",
"5#	c #0A17C7",
"6#	c #000FDB",
"7#	c #0011F0",
"8#	c #000A89",
"9#	c #000986",
":#	c #000A8B",
";#	c #000A8C",
"<#	c #202892",
"=#	c #999BAF",
">#	c #9192A8",
"?#	c #1C2590",
"@#	c #000A92",
"A#	c #000CA7",
"B#	c #000ECA",
"! # $ % % % & ' ( ) % % % * + , ",
"- . 0 1 2 3 4 5 6 7 3 8 9 : ; < ",
"= > ? @ A B C D E F G H I J K L ",
"M N O P Q R 2 S E T U V W X Y Z ",
"M [ ] ^ _ ` < a b 9 c W d e f Z ",
"M g h i j k l m n o p q r s t Z ",
"u v w x y z { | | } ~  !!!#!$!%!",
"&!'!(!)!*!+!| | | | ,!-!.!0!1!2!",
"3!4!5!6!7!8!| | | | 9!:!;!<!=!>!",
"?!@!A!B!C!D!E!| | F!G!H!I!J!K!L!",
"M g M!N!O!P!Q!R!S!T!U!V!W!X!t Z ",
"M Y!Z![!]!^!_!`!a!b!c!d!e!f!g!Z ",
"M h!i!j!k!l!m!n!o!p!q!r!s!t!u!Z ",
"v!w!x!y!z!{!|!}!~! #!###$#%#&#'#",
"(#)#*#+#,#-#.#0#1#2#-#3#4#5#6#7#",
"8#9#:#;#;#;#<#=#>#?#;#;#;#@#A#B#"};