/* XPM */ 
static char * g_Throbber3IconXpm[] = {
"16 16 215 2",
"  	c None",
"! 	c #0012FA",
"# 	c #4653FF",
"$ 	c #7982FF",
"% 	c #848DFF",
"& 	c #8A91EF",
"' 	c #A6A8BB",
"( 	c #AEAFC0",
") 	c #8C93F0",
"* 	c #8A92FF",
"+ 	c #959CFF",
", 	c #9098FF",
"- 	c #000FD2",
". 	c #0012FC",
"0 	c #4452F8",
"1 	c #5862F2",
"2 	c #505CFE",
"3 	c #4F5BFF",
"4 	c #666EE1",
"5 	c #A1A2A9",
"6 	c #B6B6BB",
"7 	c #6F77E6",
"8 	c #5B66F7",
"9 	c #5D68FB",
": 	c #6570FF",
"; 	c #646FFF",
"< 	c #000DB7",
"= 	c #0A19DC",
"> 	c #5D64BC",
"? 	c #7C7FA4",
"@ 	c #4651D6",
"A 	c #1627FE",
"B 	c #3E4AE1",
"C 	c #9D9EA7",
"D 	c #B2B2B9",
"E 	c #4752E5",
"F 	c #4A54DE",
"G 	c #8D90B8",
"H 	c #8288D6",
"I 	c #3B48FA",
"J 	c #3A48FF",
"K 	c #000CB0",
"L 	c #121FD2",
"M 	c #73769F",
"N 	c #7B7B7B",
"O 	c #86879D",
"P 	c #3A45D9",
"Q 	c #323FDF",
"R 	c #9C9DA5",
"S 	c #AFB0B6",
"T 	c #3B47E3",
"U 	c #3945DE",
"V 	c #9597AE",
"W 	c #BDBDBD",
"X 	c #9EA1C7",
"Y 	c #3240F5",
"Z 	c #2C3BFF",
"[ 	c #0210D8",
"] 	c #333FD1",
"^ 	c #71738A",
"_ 	c #818181",
"` 	c #888BA5",
"a 	c #424DDB",
"b 	c #777CB7",
"c 	c #8488C2",
"d 	c #434EDC",
"e 	c #9093B0",
"f 	c #B8B8B8",
"g 	c #A7A9BE",
"h 	c #4B55E2",
"i 	c #2232FE",
"j 	c #000FD9",
"k 	c #0012F8",
"l 	c #3541DA",
"m 	c #747695",
"n 	c #7C7E9B",
"o 	c #2E3CED",
"p 	c #1121F6",
"q 	c #1121F5",
"r 	c #2836E9",
"s 	c #9598B4",
"t 	c #9EA0BC",
"u 	c #414CE0",
"v 	c #0B1BFF",
"w 	c #2030FF",
"x 	c #1C26AC",
"y 	c #303AC4",
"z 	c #313DD8",
"{ 	c #3440DD",
"| 	c #3E49D9",
"} 	c #2734E8",
"~ 	c #0617FF",
" !	c #0012FF",
"!!	c #0517FE",
"#!	c #3845F7",
"$!	c #525DEB",
"%!	c #434FF1",
"&!	c #4955F4",
"'!	c #5964F5",
"(!	c #4B57FA",
")!	c #80829B",
"*!	c #8D8D95",
"+!	c #8C8D94",
",!	c #91919A",
"-!	c #767AB6",
".!	c #0E1FF5",
"0!	c #1525FB",
"1!	c #999DD9",
"2!	c #C9CAD4",
"3!	c #CFD0D9",
"4!	c #D1D2DB",
"5!	c #C0C2E3",
"6!	c #777994",
"7!	c #7E7F88",
"8!	c #7A7B84",
"9!	c #81828C",
":!	c #6F73B2",
";!	c #0E1EF6",
"<!	c #1626FB",
"=!	c #999DD6",
">!	c #C5C5CE",
"?!	c #C8C8D0",
"@!	c #CCCCD4",
"A!	c #BFC1DF",
"B!	c #1A24AC",
"C!	c #2C37C4",
"D!	c #2B38D8",
"E!	c #2E3BDC",
"F!	c #3B46D7",
"G!	c #2633E8",
"H!	c #0416FE",
"I!	c #0415FE",
"J!	c #3442F7",
"K!	c #505BEB",
"L!	c #4450ED",
"M!	c #4A56EF",
"N!	c #5964F1",
"O!	c #4C58F8",
"P!	c #0113F8",
"Q!	c #606BFF",
"R!	c #E1E3FF",
"S!	c #DEE0FF",
"T!	c #3B49FF",
"U!	c #1929FF",
"V!	c #1828FF",
"W!	c #3D4BFF",
"X!	c #C8CBE9",
"Y!	c #B9BBDA",
"Z!	c #0A1BFF",
"[!	c #0413DA",
"]!	c #626DFB",
"^!	c #E8EAFF",
"_!	c white",
"`!	c #DFE1FF",
"a!	c #636EFF",
"b!	c #BFC4FF",
"c!	c #BCC1FF",
"d!	c #C8CAE5",
"e!	c #E2E2E2",
"f!	c #D1D3EA",
"g!	c #5D68F8",
"h!	c #2232FF",
"i!	c #202DDE",
"j!	c #D4D7FE",
"k!	c #E6E8FF",
"l!	c #5A66FF",
"m!	c #5662FF",
"n!	c #F8F8FF",
"o!	c #F6F7FF",
"p!	c #515DFF",
"q!	c #525DF1",
"r!	c #CCCDE3",
"s!	c #E8E8E8",
"t!	c #C7CAF3",
"u!	c #3846FE",
"v!	c #000CAB",
"w!	c #1220D4",
"x!	c #9FA5F8",
"y!	c #D0D3FD",
"z!	c #0213F4",
"{!	c #535EF8",
"|!	c #F7F8FF",
"}!	c #F5F6FF",
"~!	c #4D59F7",
" #	c #5862EE",
"!#	c #C3C6ED",
"##	c #969DF4",
"$#	c #1928FE",
"%#	c #1D2DFF",
"&#	c #000B9A",
"'#	c #000CAE",
"(#	c #101DC5",
")#	c #1D29CC",
"*#	c #0210C6",
"+#	c #000EC6",
",#	c #525BD8",
"-#	c #F7F7FD",
".#	c #F4F5FD",
"0#	c #4C56D7",
"1#	c #0311C6",
"2#	c #1E2ACB",
"3#	c #101DCD",
"4#	c #000FDB",
"5#	c #0011F0",
"6#	c #000A89",
"7#	c #000986",
"8#	c #000A8B",
"9#	c #000A8C",
":#	c #2F37A1",
";#	c #D8DAED",
"<#	c #D5D7EC",
"=#	c #2C34A0",
">#	c #000A92",
"?#	c #000CA7",
"@#	c #000ECA",
"! # $ % % % & ' ( ) % % % * + , ",
"- . 0 1 2 3 4 5 6 7 3 2 8 9 : ; ",
"< = > ? @ A B C D E A F G H I J ",
"K L M N O P Q R S T U V W X Y Z ",
"K [ ] ^ _ ` a b c d e f g h i Z ",
"K j k l m n o p q r s t u v w Z ",
"x y z { | } ~  ! !!!#!$!%!&!'!(!",
")!*!+!,!-!.! ! ! ! !0!1!2!3!4!5!",
"6!7!8!9!:!;! ! ! ! !<!=!>!?!@!A!",
"B!C!D!E!F!G!H! ! !I!J!K!L!M!N!O!",
"K j P!Q!R!S!T!U!V!W!X!Y!M!Z!w Z ",
"K [!]!^!_!`!a!b!c!; d!e!f!g!h!Z ",
"K i!j!_!k!l!m!n!o!p!q!r!s!t!u!Z ",
"v!w!x!y!g!z!{!|!}!~!z! #!###$#%#",
"&#'#(#)#*#+#,#-#.#0#+#1#2#3#4#5#",
"6#7#8#9#9#9#:#;#<#=#9#9#9#>#?#@#"};