/* XPM */ 
static char * g_WarningIconXpm[] = {
"16 16 153 2",
"  	c None",
"! 	c #0012FA",
"# 	c #4653FF",
"$ 	c #7982FF",
"% 	c #848DFF",
"& 	c #8A92FF",
"' 	c #959CFF",
"( 	c #9098FF",
") 	c #000FD2",
"* 	c #0012FC",
"+ 	c #3F4DFF",
", 	c #4F5BFF",
"- 	c #5763FF",
". 	c #6570FF",
"0 	c #646FFF",
"1 	c #000DB7",
"2 	c #0010E1",
"3 	c #0315FF",
"4 	c #1526FF",
"5 	c #1F2FFF",
"6 	c #3240FF",
"7 	c #3A48FF",
"8 	c #000CB0",
"9 	c #000FD9",
": 	c #0012F8",
"; 	c #0012FF",
"< 	c #5550BF",
"= 	c #C8A265",
"> 	c #1620D4",
"? 	c #000B9A",
"@ 	c #00086E",
"A 	c #0918E3",
"B 	c #2030FF",
"C 	c #2C3BFF",
"D 	c #000DBE",
"E 	c #00097F",
"F 	c #000763",
"G 	c #0E1267",
"H 	c #D6A950",
"I 	c #FFE199",
"J 	c #8C6E48",
"K 	c #4950AC",
"L 	c #7279D5",
"M 	c #040A63",
"N 	c #1C29DB",
"O 	c #000B9C",
"P 	c #535AB3",
"Q 	c #9CA3FF",
"R 	c #B89D84",
"S 	c #FFDE90",
"T 	c #FFF5D8",
"U 	c #F5B633",
"V 	c #B1A8D2",
"W 	c #6168C1",
"X 	c #1723B7",
"Y 	c #151C75",
"Z 	c #817CB1",
"[ 	c #F4B534",
"] 	c #FFEEAD",
"^ 	c #FFE887",
"_ 	c #FFE2A4",
"` 	c #C59045",
"a 	c #050A62",
"b 	c #040D7A",
"c 	c #000ED2",
"d 	c #000FCD",
"e 	c #9DA3FD",
"f 	c #BD9154",
"g 	c #FFDF99",
"h 	c #FFE57B",
"i 	c #F58E00",
"j 	c #FFEFA7",
"k 	c #FEA713",
"l 	c #533A48",
"m 	c #141FA3",
"n 	c #2A37EF",
"o 	c #B8A7BF",
"p 	c #FFC45B",
"q 	c #FFEC9C",
"r 	c #FFDF58",
"s 	c #F38C00",
"t 	c #FFE36F",
"u 	c #FFE2A7",
"v 	c #EF9D2D",
"w 	c #A1A2F2",
"x 	c #A0A6FF",
"y 	c #363C8D",
"z 	c #2634DF",
"{ 	c #060B61",
"| 	c #EBA742",
"} 	c #FFE09B",
"~ 	c #FFE26C",
" !	c #FFDD4E",
"!!	c #FFDE53",
"#!	c #FFE889",
"$!	c #FEC474",
"%!	c #8F6047",
"&!	c #0C1363",
"'!	c #000DBA",
"(!	c #000976",
")!	c #6B483F",
"*!	c #FFC770",
"+!	c #FFEA91",
",!	c #FFDE51",
"-!	c #F48D00",
".!	c #FFE161",
"0!	c #FFEBA8",
"1!	c #E88916",
"2!	c #786CA1",
"3!	c #0F177A",
"4!	c #5E65BE",
"5!	c #F59A1D",
"6!	c #FFEDD4",
"7!	c #FFF0B7",
"8!	c #FFEDA5",
"9!	c #FFEDA4",
":!	c #FFEDA6",
";!	c #FFF5D0",
"<!	c #FCC98C",
"=!	c #9A5621",
">!	c #E58607",
"?!	c #EB8603",
"@!	c #E98303",
"A!	c #E78203",
"B!	c #E47F06",
"C!	c #E17C03",
"D!	c #E07B05",
"E!	c #DF7A06",
"F!	c #DB7604",
"G!	c #D87203",
"H!	c #AC5F31",
"I!	c #000CAB",
"J!	c #000FD1",
"K!	c #0011ED",
"L!	c #0011F4",
"M!	c #0010E5",
"N!	c #000BA7",
"O!	c #000ECA",
"P!	c #0010ED",
"Q!	c #091AFF",
"R!	c #1D2DFF",
"S!	c #000CAE",
"T!	c #000EC1",
"U!	c #000EC6",
"V!	c #000ECB",
"W!	c #000FDB",
"X!	c #0011F0",
"Y!	c #000A89",
"Z!	c #000986",
"[!	c #000A8B",
"]!	c #000A8C",
"^!	c #000A92",
"_!	c #000CA7",
"! # $ % % % % % % % % % % & ' ( ",
") * + , , , , , , , , , , - . 0 ",
"1 2 3 4 4 4 4 4 4 4 4 4 4 5 6 7 ",
"8 9 : ; ; ; ; < = > ? @ ? A B C ",
"8 D E F F F G H I J K L K M N C ",
"8 O P Q Q Q R S T U V L Q W X C ",
"8 8 Y K Q Z [ ] ^ _ ` a F b N C ",
"8 c d F e f g h i j k l F M m n ",
"8 9 : F o p q r s t u v w x y z ",
"8 9 : { | } ~  ! !!!#!$!%!x &!n ",
"8 '!(!)!*!+!r ,!-!,!.!0!1!2!3!C ",
"8 O 4!5!6!7!8!9!9!9!:!;!<!=!N C ",
"8 '!(!>!?!@!A!B!C!D!E!F!G!H!B C ",
"I!J!K!L!L!L!L!L!M!'!N!O!P!: Q!R!",
"? S!T!U!U!U!U!U!U!U!U!U!U!V!W!X!",
"Y!Z![!]!]!]!]!]!]!]!]!]!]!^!_!O!"};